<svg width="77" height="36" viewBox="0 0 77 36" fill="none" xmlns="http://www.w3.org/2000/svg">
<path d="M12.7244 9.54545V20.6847C12.7244 22.875 11.1989 24.4432 8.80398 24.4432C6.40057 24.4432 4.88352 22.875 4.88352 20.6847V9.54545H1.72159V20.9489C1.72159 24.6989 4.53409 27.2642 8.80398 27.2642C13.0568 27.2642 15.8864 24.6989 15.8864 20.9489V9.54545H12.7244ZM22.272 19.3295C22.272 17.4375 23.4141 16.3466 25.0419 16.3466C26.6357 16.3466 27.5902 17.3949 27.5902 19.142V27H30.6754V18.6648C30.6839 15.5284 28.8942 13.7386 26.1925 13.7386C24.2322 13.7386 22.8857 14.6761 22.2891 16.1335H22.1357V13.9091H19.1868V27H22.272V19.3295ZM33.8118 27H36.897V13.9091H33.8118V27ZM35.3629 12.0511C36.343 12.0511 37.1442 11.3011 37.1442 10.3807C37.1442 9.4517 36.343 8.7017 35.3629 8.7017C34.3743 8.7017 33.5732 9.4517 33.5732 10.3807C33.5732 11.3011 34.3743 12.0511 35.3629 12.0511ZM46.6065 13.9091H44.0241V10.7727H40.9389V13.9091H39.081V16.2955H40.9389V23.5739C40.9219 26.0369 42.7116 27.2472 45.0298 27.179C45.9077 27.1534 46.5128 26.983 46.8452 26.8722L46.3253 24.4602C46.1548 24.5028 45.8054 24.5795 45.4219 24.5795C44.6463 24.5795 44.0241 24.3068 44.0241 23.0625V16.2955H46.6065V13.9091ZM54.7564 27.2557C58.5916 27.2557 61.0291 24.554 61.0291 20.5057C61.0291 16.4489 58.5916 13.7386 54.7564 13.7386C50.9212 13.7386 48.4837 16.4489 48.4837 20.5057C48.4837 24.554 50.9212 27.2557 54.7564 27.2557ZM54.7734 24.7841C52.6513 24.7841 51.6115 22.892 51.6115 20.4972C51.6115 18.1023 52.6513 16.1847 54.7734 16.1847C56.8615 16.1847 57.9013 18.1023 57.9013 20.4972C57.9013 22.892 56.8615 24.7841 54.7734 24.7841ZM63.6477 27H66.733V22.6023L67.858 21.4006L71.8636 27H75.554L70.1847 19.5597L75.2557 13.9091H71.6506L66.946 19.1676H66.733V9.54545H63.6477V27Z" fill="white"/>
</svg>
